<svg xmlns="http://www.w3.org/2000/svg" xmlns:xlink="http://www.w3.org/1999/xlink" width="96.914" height="94.56" viewBox="0 0 96.914 94.56">
  <defs>
    <linearGradient id="linear-gradient" x1="0.5" y1="1" x2="0.5" gradientUnits="objectBoundingBox">
      <stop offset="0" stop-color="#ff5e57"/>
      <stop offset="0.62" stop-color="#ffbd4a"/>
    </linearGradient>
    <linearGradient id="linear-gradient-2" y1="0.5" x2="1" y2="0.5" gradientUnits="objectBoundingBox">
      <stop offset="0" stop-color="#3784de"/>
      <stop offset="1" stop-color="#7bd2fd"/>
    </linearGradient>
  </defs>
  <g id="Layer_2" data-name="Layer 2" transform="translate(-0.003)">
    <g id="Layer_1" data-name="Layer 1">
      <circle id="Ellipse_9" data-name="Ellipse 9" cx="47.28" cy="47.28" r="47.28" transform="translate(1.17 0)" fill="#fff"/>
      <path id="Path_61" data-name="Path 61" d="M48.45,47.28c19.55,0,36.81,1.44,47.14,3.63.09-1.2.14-2.41.14-3.63a47.28,47.28,0,1,0-94.56,0c0,1.22.05,2.43.14,3.63C11.64,48.72,28.9,47.28,48.45,47.28Z" fill="url(#linear-gradient)"/>
      <path id="Path_62" data-name="Path 62" d="M95.37,53.13c.09-.74.16-1.47.22-2.22C85.26,48.72,68,47.28,48.45,47.28S11.64,48.72,1.31,50.91l51.32.31L4.39,54.56,14,56.47,2.46,58.29a48,48,0,0,0,2.3,7.08l20.17-.78-8.36,1.67L58.36,67,6.57,69.23a47.6,47.6,0,0,0,6.06,8.91L34,78.92,15.69,81.36c1.09,1,2.24,2,3.43,3l12.5.76L22,86.46a47.29,47.29,0,0,0,51.77.76L56.69,85.6H76.14A48.24,48.24,0,0,0,80.58,82L56.69,79.63l27.94-1.92.79-1L51.91,73.9l36.6-1.52c.37-.58.73-1.17,1.07-1.77l-11.88-2,10-.72-7.4-.71,8.59-1.68L50.24,61H93.7a45.413,45.413,0,0,0,1.13-4.53l-15-3.35Z" fill="url(#linear-gradient-2)"/>
      <path id="Path_63" data-name="Path 63" d="M48.45,47.28c-5.3,0-10.43.1-15.3.3l23.9,1.61L45,49.67l24.95,1.07L41.53,53.37l21.72,1.55L43.44,56.11l41.9,1.44L62.42,53.13l11-.48-3.7-.83,16-.84-13-1.79,9-.35a327.314,327.314,0,0,0-33.27-1.56Z" fill="#4392e3"/>
      <path id="Path_64" data-name="Path 64" d="M36.39,60.77l36.65,4.78L37.11,62.08l29.25,4.54-6.33.96,15.04,1.19L37.35,71.04l19.46-2.15H52.87l7.04-2.27L41.29,64.47l4.06-.24L22.07,61.01l12.77.71-5.37-1.31Z" fill="#4392e3"/>
      <path id="Path_65" data-name="Path 65" d="M89.29,41.67l1.31-1.31A1,1,0,1,0,89.2,39l-.11.1-.42-5.56L90,32.18a1,1,0,0,0-1.4-1.4l-.11.12L88,24.3c3.61-3.41,6.47-6.12,7.12-6.77,2.56-2.56,1.75-6.44,1.36-6.83s-4.27-1.21-6.84,1.36c-.64.64-3.36,3.51-6.77,7.12l-6.59-.5.12-.11a.99.99,0,0,0-1.4-1.4l-1.32,1.31-5.57-.42.11-.1a1,1,0,1,0-1.4-1.4l-1.31,1.31-8.61-.65L55,19.15l15.72,4.53,4.51,3.65c-4,4.82-10.38,12.11-10.38,12.11l-8.53-1L55,39.73l6.15,3.79a1.44,1.44,0,0,0-.44,1.38A2,2,0,0,0,60,47.14a2,2,0,0,0,2.25-.67A1.42,1.42,0,0,0,63.64,46l3.78,6.15,1.3-1.3-1-8.54S75,36,79.83,32l3.65,4.5L88,52.21l1.93-1.94Z" fill="#0c264c"/>
      <path id="Path_66" data-name="Path 66" d="M41.9,61.59c-2.95,2.07-5.95,4-9,5.88a104.228,104.228,0,0,1-9.35,5c-1.58.74-3.18,1.42-4.77,2A33.81,33.81,0,0,1,14,75.87a15.21,15.21,0,0,1-2.2.3,7.259,7.259,0,0,1-1.8-.09,3.081,3.081,0,0,1-.56-.18.55.55,0,0,1-.22-.18s0-.07.06-.08,0,0,.06-.07a3.915,3.915,0,0,0,0-.89,4.649,4.649,0,0,1,.08-.61A47.14,47.14,0,0,1,3.15,60.81C2.58,62.18,2.06,63.58,1.58,65A34.2,34.2,0,0,0,.14,71.32,19.59,19.59,0,0,0,.05,75,13.07,13.07,0,0,0,.4,77.14a10.22,10.22,0,0,0,.85,2.27A8.78,8.78,0,0,0,5,83.19a9.18,9.18,0,0,0,2.3.84,11.46,11.46,0,0,0,2.11.26A15.65,15.65,0,0,0,13,84a23.37,23.37,0,0,0,3.1-.88,41.341,41.341,0,0,0,5.43-2.43c1.71-.91,3.34-1.89,4.92-2.91a109,109,0,0,0,9-6.58c2.88-2.32,5.64-4.74,8.33-7.23A206.413,206.413,0,0,0,59,48.19a205.809,205.809,0,0,1-17.1,13.4Z" fill="#0c264c"/>
      <path id="Path_67" data-name="Path 67" d="M71.71,48C68,46.72,60.23,44.19,57.4,44.59c-3.76.54-5.37.9-8.59.36s-4.84-.9-7.17-1.25-2-1.62-5.19-1.62-7.16.18-7.16.18l-6.63.9a3.75,3.75,0,0,0-2.33-1.43C18.9,41.55,18,40.11,16,39.94a8.75,8.75,0,0,0-3.94.17,11.54,11.54,0,0,1-3.59.54c-1.07,0-1.61-.54-2.5-.54s-1.08-.35-2.33-.35a16.866,16.866,0,0,0-1.93.09,47.86,47.86,0,0,0-.58,7.43c0,1.22.05,2.43.14,3.63,10.33-2.19,27.59-3.63,47.14-3.63C56.73,47.28,64.6,47.54,71.71,48Z" fill="#0c264c"/>
    </g>
  </g>
</svg>
